<svg id="Layer_1" data-name="Layer 1" xmlns="http://www.w3.org/2000/svg" viewBox="0 0 501.2 501.2"><defs><style>.cls-1{fill:#fff;}</style></defs><title>logo</title><path class="cls-1" d="M153,298.81q0-123.23-.08-246.44c0-3.21.36-4.2,4-4.2q246.69.18,493.38,0c3.19,0,3.79.81,3.79,3.86q-.12,246.69,0,493.38c0,3.74-1.16,3.92-4.26,3.92q-246.44-.12-492.88,0c-3.48,0-4.07-.76-4.06-4.12Q153.09,422,153,298.81Z" transform="translate(-152.91 -48.17)"/><path d="M304.05,183.62c-14.46-5.16-24.06-15.91-33.11-27.39-2.1-2.66-1.81-3.55,1.37-4.55,17.37-5.44,34.39-5.1,51.11,2.56,1.7.78,3.24,2.39,6,1.61-10.57-12.17-13.37-27-16.08-41.94-.54-3-.33-4.22,3.21-3.78,10.25,1.25,20.49,2.54,30.42,5.48,11.45,3.38,19.66,10.85,25.79,20.85l4.74,7.76c1.95-16.2,11-26.42,23.29-34.32a45.43,45.43,0,0,1,11.89-5.1c1.92-.56,3.15-.71,3.14,2,0,7.26,3,13.52,6.65,19.59s4.85,12.94,4.59,20.09c2.28-.08,2.4-1.94,3.11-3.07,11.94-19.05,28.31-29.6,51.58-27.38a61.24,61.24,0,0,0,12.48,0c3.9-.43,4.1,1.34,3.61,4.27a51.64,51.64,0,0,1-16,29.79c-1.65,1.55-3.79,2.72-4.71,5.12,2.54.67,4.58-.71,6.72-1.35,17.2-5.15,33.85-3.58,50.09,3.86,3.1,1.42,3.47,2.54,1.06,5.19-7.59,8.35-16,15.4-27.23,18.93.5.76.65,1.32,1,1.48,28.81,13.42,44.08,37.1,50.25,67.27,5.78,28.22,1.28,55.59-10.55,81.36-22.25,48.45-50.62,92.94-89.05,130.43a154.33,154.33,0,0,1-26.81,20.76c-19.16,11.83-38.41,12.09-58.22,1.42C355,474,339.17,459.41,324.87,443,294,407.65,270,367.84,254.63,323.63c-12.22-35.13-12.92-70.71,8.74-103.62,9.43-14.33,22.05-25.28,37-33.59,1-.56,2-1.12,3-1.7C303.53,184.65,303.58,184.46,304.05,183.62Z" transform="translate(-152.91 -48.17)"/><path class="cls-1" d="M549.85,272.67c-.43,20.86-4.78,39.8-13.23,57.55-20.08,42.17-44.72,81.39-77.06,115.4-10.37,10.89-21.63,20.71-34.68,28.39-14.1,8.31-28.17,8.72-42.77,1.32-17.86-9.06-32.36-22.25-45.46-37a367.26,367.26,0,0,1-70.1-116c-5.16-13.78-9.35-27.87-9.06-42.64.54-27.34,9.26-51.53,30.23-70.1,24.95-22.11,54.09-28.31,86.14-21,20.58,4.7,40.93,3.67,61.46.23,17.32-2.91,34.71-4,52.11-.2,32.94,7.27,51.32,28.84,59.51,60.41A107.6,107.6,0,0,1,549.85,272.67Z" transform="translate(-152.91 -48.17)"/><path d="M450.05,256.58c0,7.53-4.5,13.81-9.7,13.65S431.07,264,431,256.72c-.11-7.78,4.37-14.29,9.74-14.13C445.92,242.74,450.08,249,450.05,256.58Z" transform="translate(-152.91 -48.17)"/><path d="M377.05,256.31c0,7.6-4.22,13.85-9.42,13.93S357.84,263.73,358,256c.13-7.23,4.42-13.31,9.48-13.41C372.66,242.47,377,248.74,377.05,256.31Z" transform="translate(-152.91 -48.17)"/><path d="M447.5,341.34c-.33,7.53-4.53,13.14-9.74,13-5-.16-9-5.67-9.33-12.92-.4-7.94,4.11-14.58,9.78-14.42C443.69,327.13,447.84,333.54,447.5,341.34Z" transform="translate(-152.91 -48.17)"/><path d="M394.52,379.65c.11-7.45,4.13-13.26,9.28-13.43,5.35-.17,9.69,5.76,9.82,13.43s-4,13.71-9.33,13.87C398.65,393.69,394.41,387.67,394.52,379.65Z" transform="translate(-152.91 -48.17)"/><path d="M379.81,340.66c0,7.46-4.39,13.64-9.66,13.65s-9.43-6-9.42-13.74c0-7.93,4-13.63,9.48-13.59C375.53,327,379.82,333.14,379.81,340.66Z" transform="translate(-152.91 -48.17)"/><path d="M394.5,298.17c-.19-7,4.1-13.2,9.27-13.38,4.85-.18,9.82,6.19,10.06,12.85.17,4.93-2,9-5,12.58-2.91,3.39-9.58,1.42-12.38-3.4C394.88,304.14,394.77,301.13,394.5,298.17Z" transform="translate(-152.91 -48.17)"/><path d="M475,298.06c-.71,3.75-1.1,7.93-4,11.27-3.56,4.13-8.09,3.89-11.26-.59-3.71-5.24-3.59-14.19.26-19.87s9.71-5.47,13,.67A18.72,18.72,0,0,1,475,298.06Z" transform="translate(-152.91 -48.17)"/><path d="M488,340.72A18.33,18.33,0,0,1,491.75,330c3.67-4.47,9.1-4.09,11.83,1,3.55,6.56,3.12,13.21-.88,19.4-3.72,5.75-9.77,5.17-12.84-1A18,18,0,0,1,488,340.72Z" transform="translate(-152.91 -48.17)"/><path d="M358,415.46c.08-6.95,3.58-12.55,8-12.8s8.08,4.27,9.44,11.26A16.15,16.15,0,0,1,373,426.77c-3.21,4.54-7.73,4.63-11.24.31A17.49,17.49,0,0,1,358,415.46Z" transform="translate(-152.91 -48.17)"/><path d="M296.87,253.93a16.46,16.46,0,0,1,3.16-11c3.47-4.68,8.89-4.51,11.79.57a18.24,18.24,0,0,1-.23,19.44c-3.62,6-9.56,5.57-12.87-.56A15.37,15.37,0,0,1,296.87,253.93Z" transform="translate(-152.91 -48.17)"/><path d="M350.87,299.15c0,7.08-3.44,12.66-7.75,13.09s-7.88-3.65-9.53-10.5a17.33,17.33,0,0,1,1.91-13c2.88-5.05,7.22-5.19,11.23-1C350,291.21,350.07,295.55,350.87,299.15Z" transform="translate(-152.91 -48.17)"/><path d="M480.64,378.05c-.37,4.88-1.2,9.59-5,13.17s-8.21,3-10.88-1.39c-3.59-5.85-2.15-16.68,2.83-21.32,3.78-3.53,8.17-2.94,10.91,1.42C480.07,372.42,480.3,375.24,480.64,378.05Z" transform="translate(-152.91 -48.17)"/><path d="M450.07,415.29a18,18,0,0,1-3.23,11.16c-3.74,5.19-9.4,5-12.39-.66-3.29-6.19-2.8-12.52.6-18.58,1.54-2.74,3.89-4.73,7.23-4.46,3.12.25,5,2.5,6.22,5.17A14.53,14.53,0,0,1,450.07,415.29Z" transform="translate(-152.91 -48.17)"/><path d="M320.08,342.45c-.05,6.37-3,11.27-7.09,11.79s-8.29-3.56-9.94-9.54a18,18,0,0,1,.81-13.13c2.64-5.44,8.15-6.19,12.09-1.6A17.86,17.86,0,0,1,320.08,342.45Z" transform="translate(-152.91 -48.17)"/><path d="M511.2,253.49c0,7.88-3.45,13.41-8.12,13.66s-8.9-5.64-9.25-12.93c-.19-3.9.24-7.65,2.49-11,3.18-4.71,8-4.93,11.55-.47A15.58,15.58,0,0,1,511.2,253.49Z" transform="translate(-152.91 -48.17)"/><path d="M345.26,380.63c0,7.62-2.72,12.24-6.89,12.78-4.34.55-8.78-3.6-10.21-9.79a20.37,20.37,0,0,1,.3-11.32c1-2.92,2.66-5.51,6-6s5.68,1.41,7.49,4A17.38,17.38,0,0,1,345.26,380.63Z" transform="translate(-152.91 -48.17)"/><path d="M413.6,453.65a22.23,22.23,0,0,1-.84,4.22c-1.54,4.13-4.05,7.46-8.93,7.35-4.59-.11-7.07-3.31-8.49-7.27a16,16,0,0,1-.76-5.38c.08-6.68,4.37-12.1,9.42-12.11C409.21,440.45,413.66,446.25,413.6,453.65Z" transform="translate(-152.91 -48.17)"/><path d="M394.53,217.13a15.09,15.09,0,0,1,2.23-8c3.83-5.67,10.39-5.77,14.37-.22,3.41,4.76,3.17,12.71-.53,17.21-3.92,4.77-10.33,4.31-13.82-1A15.13,15.13,0,0,1,394.53,217.13Z" transform="translate(-152.91 -48.17)"/><path d="M280.13,296.9c.06-.67.08-1.33.17-2,.82-6.23,3.55-10,7.2-10.09s7.17,3.77,8.37,9.38c1.16,5.43,1.81,11-2.45,15.55-3,3.22-5.61,3.12-8.39-.16C281.94,305.94,279.87,301.86,280.13,296.9Z" transform="translate(-152.91 -48.17)"/><path d="M348.2,213.45c-.07,7.37-4.49,13.2-9.74,12.87s-8.38-6.12-7.6-13.68c.66-6.38,4.93-11.24,9.61-10.92S348.27,206.87,348.2,213.45Z" transform="translate(-152.91 -48.17)"/><path d="M459.86,213.24a13.74,13.74,0,0,1,1.22-6.4c2.9-6.16,9.43-6.93,13.41-1.41,3.33,4.62,3.68,9.83,1.87,15.13-1,2.94-2.92,5.2-6.25,5.69-3.62.54-6-1.52-7.82-4.21A13.91,13.91,0,0,1,459.86,213.24Z" transform="translate(-152.91 -48.17)"/><path d="M512.84,297.62a52.4,52.4,0,0,1,.79-6.54c.78-3.57,3.07-6.08,6.85-6.15s4.93,2.79,5.75,6.23c1.18,5,2.06,9.71-.41,14.49-1.72,3.32-3.69,6.85-7.91,6.45-4.57-.43-4.17-5-5-8.15C512.5,302.4,512.84,300.65,512.84,297.62Z" transform="translate(-152.91 -48.17)"/></svg>